HIERARCHY
ROOT Hips
{
	OFFSET -3.958830 18.904000 13.208200
	CHANNELS 6 Xposition Yposition Zposition Zrotation Yrotation Xrotation 
	JOINT LHipJoint
	{
		OFFSET 0.000000 0.000000 0.000000
		CHANNELS 3 Zrotation Yrotation Xrotation
		JOINT LeftUpLeg
		{
			OFFSET 1.800000 -1.400000 0.085000
			CHANNELS 3 Zrotation Yrotation Xrotation
			JOINT LeftLeg
			{
				OFFSET 2.215000 -6.000000 0.000000
				CHANNELS 3 Zrotation Yrotation Xrotation
				JOINT LeftFoot
				{
					OFFSET 2.500000 -6.900000 0.000000
					CHANNELS 3 Zrotation Yrotation Xrotation
					JOINT LeftToeBase
					{
						OFFSET 0.200000 -0.500000 1.950000
						CHANNELS 3 Zrotation Yrotation Xrotation
						End Site
						{
							OFFSET 0.000000 0.000000 0.000000
						}
					}
				}
			}
		}
	}
	JOINT RHipJoint
	{
		OFFSET 0.000000 0.000000 0.000000
		CHANNELS 3 Zrotation Yrotation Xrotation
		JOINT RightUpLeg
		{
			OFFSET -1.800000 -1.400000 0.085000
			CHANNELS 3 Zrotation Yrotation Xrotation
			JOINT RightLeg
			{
				OFFSET -2.215000 -6.000000 0.000000
				CHANNELS 3 Zrotation Yrotation Xrotation
				JOINT RightFoot
				{
					OFFSET -2.500000 -6.900000 0.000000
					CHANNELS 3 Zrotation Yrotation Xrotation
					JOINT RightToeBase
					{
						OFFSET -0.200000 -0.500000 1.950000
						CHANNELS 3 Zrotation Yrotation Xrotation
						End Site
						{
							OFFSET 0.000000 0.000000 0.000000
						}
					}
				}
			}
		}
	}
	JOINT LowerBack
	{
		OFFSET 0.000000 0.000000 0.000000
		CHANNELS 3 Zrotation Yrotation Xrotation
		JOINT Spine
		{
			OFFSET -0.087000 1.940000 -0.288900
			CHANNELS 3 Zrotation Yrotation Xrotation
			JOINT Spine1
			{
				OFFSET 0.000000 1.950000 0.060000
				CHANNELS 3 Zrotation Yrotation Xrotation
				JOINT Neck
				{
					OFFSET 0.000000 0.000000 0.000000
					CHANNELS 3 Zrotation Yrotation Xrotation
					JOINT Neck1
					{
						OFFSET 0.000000 1.600000 0.340000
						CHANNELS 3 Zrotation Yrotation Xrotation
						JOINT Head
						{
							OFFSET 0.000000 1.667000 -0.240000
							CHANNELS 3 Zrotation Yrotation Xrotation
							End Site
							{
								OFFSET 0.000000 0.000000 0.000000
							}
						}
					}
				}
				JOINT LeftShoulder
				{
					OFFSET 0.000000 0.000000 0.000000
					CHANNELS 3 Zrotation Yrotation Xrotation
					JOINT LeftArm
					{
						OFFSET 2.700000 1.550000 -0.730000
						CHANNELS 3 Zrotation Yrotation Xrotation
						JOINT LeftForeArm
						{
							OFFSET 5.450000 0.000000 0.000000
							CHANNELS 3 Zrotation Yrotation Xrotation
							JOINT LeftHand
							{
								OFFSET 3.450000 0.000000 0.000000
								CHANNELS 3 Zrotation Yrotation Xrotation
								JOINT LeftHandIndex1
								{
									OFFSET 0.750000 0.000000 0.000000
									CHANNELS 3 Zrotation Yrotation Xrotation
									End Site
									{
										OFFSET 0.000000 0.000000 0.000000
									}
								}
							}
						}
					}
				}
				JOINT RightShoulder
				{
					OFFSET 0.000000 0.000000 0.000000
					CHANNELS 3 Zrotation Yrotation Xrotation
					JOINT RightArm
					{
						OFFSET -2.700000 1.550000 -0.730000
						CHANNELS 3 Zrotation Yrotation Xrotation
						JOINT RightForeArm
						{
							OFFSET -5.450000 0.000000 0.000000
							CHANNELS 3 Zrotation Yrotation Xrotation
							JOINT RightHand
							{
								OFFSET -3.450000 0.000000 0.000000
								CHANNELS 3 Zrotation Yrotation Xrotation
								JOINT RightHandIndex1
								{
									OFFSET -0.750000 0.000000 0.000000
									CHANNELS 3 Zrotation Yrotation Xrotation
									End Site
									{
										OFFSET 0.000000 0.000000 0.000000
									}
								}
							}
						}
					}
				}
			}
		}
	}
}
MOTION
Frames: 13
Frame Time: 0.016667
0.144780 17.369910 -2.620960 6.002189 6.363283 0.020436 -14.714492 12.469135 2.767465 7.793805 -1.674606 -21.066986 -8.094588 8.511743 24.270192 0.157440 4.694418 2.751031 0.049570 -0.047990 0.085500 18.608593 -11.947358 2.806654 -11.505298 -0.231867 -4.652434 5.895220 -4.861831 7.727021 -0.223422 -4.056699 2.976513 -0.055450 -0.036580 0.044910 -4.848903 1.523563 -7.216290 13.678295 3.194536 6.299420 -1.876730 3.044562 8.801813 4.928623 2.943134 -11.725296 8.878183 -6.705190 66.519569 -3.697110 -4.452160 12.880190 -21.566278 -11.434657 7.244457 -60.193852 2.242896 -5.424069 -20.472180 -4.404794 -0.880061 -3.748750 2.956990 0.022200 0.015730 0.007380 0.004430 12.784188 13.115037 3.915680 42.822779 23.352858 3.093504 3.566026 21.739363 0.493809 2.683792 -1.252919 0.046030 -0.059280 -0.020360 -0.015120 
0.152000 17.389390 -2.629950 5.778253 6.426157 0.397726 -14.726381 12.420560 2.787097 7.758364 -1.732848 -21.474861 -8.126116 8.434590 24.043200 0.131214 4.647932 2.763119 0.058650 -0.039500 0.098120 18.598151 -11.955808 2.818201 -11.420474 -0.157614 -5.165652 6.127641 -4.848197 7.670283 -0.215978 -4.021357 2.982231 -0.045230 -0.040250 0.048290 -4.817609 1.630396 -7.230525 13.373744 3.383156 6.639207 -1.337617 3.198730 8.632702 4.963671 3.559379 -11.578302 10.590191 -7.801491 65.229997 -3.698550 -4.717960 12.088180 -21.406692 -11.096885 7.194492 -60.205531 2.554909 -5.839476 -21.437364 -4.967746 -0.900358 -3.750675 2.956295 0.027560 0.016700 0.010270 0.000490 12.643035 12.518249 3.570963 43.092153 23.873769 3.478581 3.283390 20.790543 0.405861 2.688900 -1.246898 0.043180 -0.054040 -0.020290 -0.022060 
0.162700 17.416270 -2.649200 5.322879 6.348188 1.094086 -14.745634 12.344751 2.833131 7.591994 -1.870183 -22.422730 -7.952266 8.277391 23.923335 0.092507 4.563889 2.781690 0.080730 -0.014030 0.121060 18.580669 -11.972131 2.833456 -11.143487 -0.006247 -6.251648 6.417962 -4.790200 7.704447 -0.197353 -3.931248 2.999128 -0.023860 -0.049820 0.054170 -4.763824 1.801192 -7.258304 12.963615 3.741812 7.432824 -0.320143 3.529602 8.325989 4.981818 4.584856 -11.294962 13.302567 -9.511655 62.669194 -3.494410 -5.274230 10.595110 -21.069947 -10.360365 7.079880 -60.099973 3.181522 -6.651678 -23.504429 -6.162514 -0.894273 -3.747437 2.969441 0.030820 0.015420 0.016480 -0.004920 12.407217 11.384515 2.919851 43.154324 24.738060 3.984265 3.096006 19.986492 0.341831 2.692613 -1.244460 0.045320 -0.049510 -0.025260 -0.029830 
0.179980 17.444300 -2.674680 4.900830 6.252981 1.925144 -14.765929 12.271323 2.911770 7.251228 -2.083377 -23.679568 -7.750090 8.108491 23.867492 0.060258 4.476388 2.803898 0.094470 0.004340 0.130920 18.558904 -11.974657 2.835690 -11.125293 0.228236 -7.646234 6.789681 -4.757897 7.983807 -0.165552 -3.838668 3.013983 -0.006470 -0.052660 0.063030 -4.705969 1.925886 -7.298587 12.649921 4.025993 8.410563 0.839053 3.816372 7.986432 4.908172 5.325904 -10.964725 15.164706 -10.809872 60.094820 -3.633870 -5.784980 9.483380 -20.565636 -9.350251 6.943014 -59.775943 4.178302 -7.670388 -27.028420 -7.386359 -0.878181 -3.743798 3.003788 0.023480 0.021080 0.015510 -0.007160 12.170535 10.232224 2.159084 42.842263 25.767670 4.493814 3.037241 19.188022 0.312495 2.700920 -1.247449 0.049130 -0.050780 -0.027340 -0.031820 
0.201420 17.477190 -2.706700 4.382634 6.216888 2.807503 -14.785452 12.211191 2.981079 6.624681 -2.341912 -24.891610 -7.157391 7.736901 23.616213 0.010532 4.299720 2.860393 0.112750 0.028460 0.146370 18.537974 -11.968650 2.850319 -11.067485 0.500102 -9.222847 7.188306 -4.701822 8.209280 -0.134043 -3.726706 3.033707 0.016220 -0.054570 0.068570 -4.653604 2.024637 -7.332082 12.388206 4.224312 9.570422 1.705607 4.076165 7.601867 4.940483 6.114393 -10.558627 17.323321 -11.917164 57.816475 -3.494000 -5.996750 8.402960 -20.297316 -8.040913 6.721783 -59.153573 5.493388 -8.783787 -30.769081 -8.631517 -0.807075 -3.736718 3.034794 0.020980 0.026340 0.017000 -0.008110 11.966517 8.724852 1.260327 42.931870 26.856567 4.956430 2.935030 18.917918 0.269804 2.702008 -1.249428 0.048510 -0.046360 -0.032160 -0.036710 
0.216760 17.495650 -2.746230 3.956015 6.168088 3.746110 -14.814689 12.151452 3.086684 6.069505 -2.642680 -26.417109 -6.638949 7.488872 23.698716 -0.035072 4.193740 2.888391 0.129310 0.049670 0.164780 18.508181 -11.924666 2.868320 -11.089262 0.826113 -10.928616 7.738237 -4.668421 8.480915 -0.102761 -3.610237 3.053736 0.038660 -0.058840 0.070700 -4.574844 2.046179 -7.398960 11.939705 4.272274 10.962558 2.294109 4.239929 7.251125 4.953242 6.710605 -10.204364 19.065162 -12.497887 55.965634 -3.461260 -5.720720 7.394320 -19.987316 -6.750308 6.568401 -57.968895 7.206484 -9.956281 -34.975326 -9.893983 -0.677352 -3.721783 3.066285 0.025990 0.030800 0.020250 -0.011490 11.750183 7.351882 0.393206 43.648779 28.082669 5.293528 2.161332 19.294893 0.094487 2.690551 -1.250912 0.041880 -0.039340 -0.035430 -0.047590 
0.224690 17.485480 -2.784560 3.430008 6.093012 4.863346 -14.855987 12.095494 3.221005 5.679850 -2.955836 -28.391363 -5.928317 7.314869 24.277855 -0.070554 4.157308 2.888333 0.149110 0.076910 0.177880 18.471934 -11.835445 2.889205 -11.096688 1.219594 -12.763453 8.575931 -4.703360 8.974911 -0.075829 -3.504806 3.069240 0.063280 -0.059940 0.073370 -4.469220 1.974762 -7.489823 11.282913 4.223187 12.409379 3.331681 4.283559 7.014351 4.649748 6.961326 -9.747831 19.504238 -12.178408 53.804432 -3.232020 -5.212630 5.929040 -18.836866 -5.139860 6.512504 -57.257305 9.437750 -11.435888 -40.091749 -11.750177 -0.296640 -3.697736 3.108744 0.034050 0.032590 0.024860 -0.010370 11.331979 5.877488 -0.644698 44.146256 29.548752 5.614770 1.309688 19.954806 -0.078107 2.675820 -1.248133 0.036000 -0.029810 -0.038740 -0.055540 
0.230850 17.465810 -2.829330 2.778085 5.905263 5.860729 -14.905195 12.103737 3.351138 5.361218 -3.187647 -30.178447 -4.977949 7.055175 24.725703 -0.107495 4.101149 2.898964 0.163480 0.095530 0.185560 18.422474 -11.721669 2.916773 -10.978106 1.660715 -14.569705 9.368847 -4.769918 9.760964 -0.048706 -3.402666 3.088720 0.082590 -0.054940 0.072480 -4.331827 1.761451 -7.602563 10.783361 4.215462 14.129381 4.517529 4.438286 6.772115 4.220356 6.978759 -9.355782 19.069114 -11.422366 52.311866 -2.835310 -4.702300 4.612130 -18.125617 -4.058704 6.547667 -55.843576 11.476540 -12.377553 -45.552555 -13.042888 0.123090 -3.670485 3.154163 0.045410 0.033490 0.026280 -0.008530 11.521741 5.145718 -1.530875 43.203242 30.693343 5.462066 0.098929 20.704188 -0.287849 2.659237 -1.232262 0.026080 -0.015040 -0.038080 -0.062510 
0.237970 17.434190 -2.881670 2.157072 5.888915 6.982423 -14.974140 12.104743 3.518147 4.828372 -3.529991 -32.357112 -3.766325 6.790162 25.607858 -0.137852 4.089692 2.894349 0.176240 0.117900 0.183420 18.363246 -11.546672 2.953152 -10.902700 2.160779 -16.419125 10.214313 -4.810426 10.380132 -0.024317 -3.299507 3.112323 0.104180 -0.043920 0.067460 -4.154546 1.444352 -7.741201 10.093792 4.262943 16.008509 5.972095 4.679315 6.460056 3.596641 6.782629 -8.851715 17.741603 -10.255503 50.559696 -2.205460 -4.246930 2.907520 -17.285829 -2.912867 6.544058 -54.370885 13.543725 -13.088044 -50.909396 -13.809900 0.476188 -3.641843 3.192793 0.059090 0.032670 0.026520 -0.003780 11.927985 4.551482 -2.437795 41.555746 31.493834 4.850355 -1.299566 21.882110 -0.523781 2.632344 -1.210574 0.013450 0.007860 -0.034290 -0.065450 
0.242000 17.402420 -2.943930 1.512163 5.908556 8.031558 -15.038219 12.106019 3.682003 4.260570 -3.867709 -34.408848 -2.513778 6.462508 26.296050 -0.163555 4.047601 2.899080 0.205760 0.157110 0.199640 18.311332 -11.344880 3.010561 -10.940100 2.737913 -18.231810 11.399358 -4.951916 11.197783 -0.020588 -3.247140 3.111319 0.131900 -0.052160 0.064490 -3.995107 1.092451 -7.890823 9.682173 4.274522 17.981316 7.293399 4.930531 6.148633 2.977648 6.311768 -8.359415 15.832392 -9.068025 49.138130 -1.957940 -3.786430 0.982030 -16.659628 -1.962038 6.528365 -52.555457 15.320148 -13.372374 -56.000615 -14.220274 0.794944 -3.599224 3.236617 0.076050 0.020360 0.039960 0.002400 12.478582 4.393532 -3.219122 39.828025 32.262983 4.113153 -3.266970 22.867987 -0.905617 2.610140 -1.196594 0.010320 0.023940 -0.044010 -0.070390 
0.242150 17.362310 -3.008660 0.951872 6.503213 9.139846 -15.116603 12.092391 3.872935 3.627064 -4.320335 -36.611660 -1.223729 6.102813 27.010296 -0.182268 4.007583 2.898712 0.240720 0.206290 0.222360 18.255419 -11.100959 3.066095 -10.923333 3.310758 -19.915145 12.529635 -5.083513 11.900373 -0.029302 -3.201548 3.108920 0.159780 -0.071760 0.063390 -3.815838 0.673778 -8.047700 9.133585 4.053542 20.004524 8.440774 4.917045 5.820800 2.408177 5.835009 -8.024405 14.065573 -8.011764 47.708725 -1.823000 -3.258030 -1.171180 -15.991148 -1.364878 6.633020 -50.738886 17.066721 -13.606904 -60.329155 -14.536663 1.050360 -3.552745 3.274145 0.096500 0.002190 0.063930 0.006130 12.890700 4.519600 -3.824435 38.402056 32.936045 3.264281 -5.681279 23.949632 -1.428221 2.583256 -1.185063 0.014760 0.036280 -0.057570 -0.075870 
0.244220 17.315860 -3.061690 0.374335 7.296764 10.052864 -15.204907 12.141725 4.019866 2.939046 -4.690612 -38.298025 0.284471 5.612164 27.382071 -0.206835 3.910286 2.919031 0.272760 0.250340 0.242670 18.185805 -10.844172 3.123653 -10.879886 3.830133 -21.157327 13.633678 -5.213950 12.423767 -0.049209 -3.177081 3.103528 0.182540 -0.091280 0.062300 -3.602856 0.142547 -8.185147 8.440296 3.784349 22.086103 9.650617 4.848502 5.343570 1.833150 5.208558 -7.711160 12.198780 -6.565150 46.647044 -1.309780 -2.407090 -3.326970 -15.564587 -0.822005 6.812169 -49.322410 19.127325 -14.026172 -63.729623 -14.740380 1.129343 -3.507642 3.296210 0.127350 -0.020200 0.091660 0.008560 13.555115 4.818259 -4.429547 36.597911 33.419338 2.263830 -8.034744 24.735127 -1.931797 2.559881 -1.162802 0.016730 0.048610 -0.067910 -0.083330 
0.252060 17.261350 -3.105600 -0.172582 8.979480 10.783759 -15.294084 12.219304 4.160400 2.158283 -5.131065 -39.673571 1.789990 5.048077 27.477046 -0.225432 3.774637 2.959000 0.296670 0.280130 0.261410 18.112849 -10.574349 3.178434 -10.993434 4.344458 -22.216357 14.945768 -5.511902 13.352905 -0.081541 -3.225754 3.073414 0.193140 -0.116050 0.059200 -3.396738 -0.472399 -8.324100 8.036122 3.199865 24.252492 10.904861 4.509026 4.681982 1.202798 4.439681 -7.640937 10.009406 -5.528019 45.511040 -0.993950 -2.035840 -5.397140 -15.184621 -0.783507 7.185996 -47.866214 21.414973 -14.509925 -67.086926 -14.552069 0.907079 -3.458393 3.313590 0.160430 -0.049490 0.120170 0.008660 14.326877 5.631654 -4.748998 34.215624 33.205450 0.714110 -10.574883 25.700438 -2.488533 2.535088 -1.142079 0.019910 0.057720 -0.077730 -0.090030 
